# xmcd
#
# Track frame offsets: 
#        150
#        20589
#        37584
#        51378
#        61408
#        71634
#        83503
#        98498
#        119040
#        130491
#
# Disc length: 1890 seconds
#
# Revision: 0
# Processed by: cddbd v1.5.2PL0 Copyright (c) Steve Scherf et al.
# Submitted via: ExactAudioCopyFreeDBPlugin 1.0
#
DISCID=8307600a
DTITLE=Carl Perkins - Blue Suede Shoes
DYEAR=1997
DGENRE=Country
TTITLE0=Blue Suede Shows
TTITLE1=Honey Don't
TTITLE2=Boppin' The Blues
TTITLE3=Put Your Cat Clothes On
TTITLE4=Dixie Fried
TTITLE5=One And Only You
TTITLE6=Gone, Gone, Gone
TTITLE7=High Heel Sneakers
TTITLE8=Be My Baby
TTITLE9=Matchbox
EXTD=
EXTT0=
EXTT1=
EXTT2=
EXTT3=
EXTT4=
EXTT5=
EXTT6=
EXTT7=
EXTT8=
EXTT9=
PLAYORDER=
